<svg width="7" height="7" viewBox="0 0 7 7" fill="none" xmlns="http://www.w3.org/2000/svg">
<g clip-path="url(#clip0_201_18741)">
<path d="M3.332 0.554688C1.76594 0.554688 0.555298 1.70147 0.555298 3.24809C0.555298 4.05611 0.885726 4.75862 1.42718 5.23899C1.47161 5.27509 1.49938 5.33618 1.50215 5.39726L1.51604 5.89152C1.52715 6.04979 1.68542 6.15253 1.82981 6.08866L2.37959 5.84709C2.4268 5.83043 2.47956 5.8221 2.52676 5.83043C2.77666 5.9054 3.05433 5.9415 3.332 5.9415C4.89807 5.9415 6.10871 4.79472 6.10871 3.24809C6.10871 1.70147 4.89807 0.554688 3.332 0.554688ZM4.99803 2.62611L4.18445 3.92283C4.05395 4.12553 3.77628 4.17829 3.58191 4.02557L2.93216 3.5452C2.87385 3.50077 2.79055 3.50077 2.73224 3.5452L1.8548 4.21161C1.73817 4.30324 1.58546 4.16441 1.66598 4.03668L2.47956 2.73996C2.61006 2.53726 2.88773 2.4845 3.0821 2.62889L3.73185 3.11759C3.79294 3.16201 3.87346 3.16201 3.93177 3.11759L4.80921 2.45118C4.92583 2.35955 5.07855 2.49838 4.99803 2.62611Z" fill="black"/>
</g>
<defs>
<clipPath id="clip0_201_18741">
<rect width="6.6641" height="6.6641" fill="white"/>
</clipPath>
</defs>
</svg>
